<svg width="20" height="20" viewBox="0 0 20 20" fill="none" xmlns="http://www.w3.org/2000/svg">
<path d="M10.7813 4.70312C9.0625 4.70312 7.67188 6.09375 7.67188 7.8125C7.67188 9.53125 9.0625 10.9219 10.7813 10.9219C12.5 10.9219 13.8906 9.53125 13.8906 7.8125C13.8906 6.09375 12.5 4.70312 10.7813 4.70312ZM10.7813 9.67188C9.75 9.67188 8.92188 8.82812 8.92188 7.8125C8.92188 6.79688 9.75 5.95312 10.7813 5.95312C11.8125 5.95312 12.6406 6.78125 12.6406 7.8125C12.6406 8.84375 11.8125 9.67188 10.7813 9.67188Z" fill="black"/>
<path d="M6.5625 1.40625H17.5V18.5938H2.5V1.40625H3.75V17.0312H5V0.15625H1.25V19.8438H18.75V0.15625H6.5625V1.40625Z" fill="black"/>
<path d="M8.04688 12.9062L8.70313 13.9688C9.32813 13.6094 10.0469 13.4219 10.7812 13.4219C11.5156 13.4219 12.2344 13.6094 12.8594 13.9531L13.5156 12.8906C12.6875 12.4375 11.75 12.1875 10.7812 12.1875C9.8125 12.1875 8.875 12.4375 8.04688 12.9062Z" fill="black"/>
</svg>
