<svg width="161" height="41" viewBox="0 0 161 41" fill="none" xmlns="http://www.w3.org/2000/svg">
<path d="M31.84 6.016V40H21.184V26.752H11.056V40H0.4V6.016H11.056V18.256H21.184V6.016H31.84ZM49.4984 40.336C46.7784 40.336 44.3304 39.776 42.1544 38.656C39.9784 37.536 38.2664 35.936 37.0184 33.856C35.8024 31.744 35.1944 29.28 35.1944 26.464C35.1944 23.648 35.8024 21.2 37.0184 19.12C38.2664 17.008 39.9784 15.392 42.1544 14.272C44.3304 13.152 46.7784 12.592 49.4984 12.592C52.2184 12.592 54.6664 13.152 56.8424 14.272C59.0184 15.392 60.7144 17.008 61.9304 19.12C63.1784 21.2 63.8024 23.648 63.8024 26.464C63.8024 29.28 63.1784 31.744 61.9304 33.856C60.7144 35.936 59.0184 37.536 56.8424 38.656C54.6664 39.776 52.2184 40.336 49.4984 40.336ZM49.4984 31.12C50.4904 31.12 51.3224 30.736 51.9944 29.968C52.6664 29.168 53.0024 28 53.0024 26.464C53.0024 24.928 52.6664 23.776 51.9944 23.008C51.3224 22.208 50.4904 21.808 49.4984 21.808C48.5064 21.808 47.6744 22.208 47.0024 23.008C46.3304 23.776 45.9944 24.928 45.9944 26.464C45.9944 28 46.3144 29.168 46.9544 29.968C47.6264 30.736 48.4744 31.12 49.4984 31.12ZM103.294 12.736C106.75 12.736 109.422 13.776 111.31 15.856C113.23 17.936 114.19 20.752 114.19 24.304V40H103.582V25.648C103.582 24.496 103.23 23.6 102.526 22.96C101.854 22.288 100.942 21.952 99.79 21.952C98.606 21.952 97.678 22.288 97.006 22.96C96.334 23.6 95.998 24.496 95.998 25.648V40H85.39V25.648C85.39 24.496 85.038 23.6 84.334 22.96C83.662 22.288 82.75 21.952 81.598 21.952C80.414 21.952 79.486 22.288 78.814 22.96C78.142 23.6 77.806 24.496 77.806 25.648V40H67.15V12.928H77.806V16.576C78.574 15.424 79.614 14.496 80.926 13.792C82.27 13.088 83.838 12.736 85.63 12.736C87.582 12.736 89.31 13.168 90.814 14.032C92.318 14.864 93.518 16.048 94.414 17.584C95.406 16.176 96.67 15.024 98.206 14.128C99.742 13.2 101.438 12.736 103.294 12.736ZM124.182 10.768C122.326 10.768 120.838 10.272 119.718 9.28C118.598 8.288 118.038 7.04 118.038 5.536C118.038 4 118.598 2.736 119.718 1.744C120.838 0.719997 122.326 0.207997 124.182 0.207997C126.006 0.207997 127.478 0.719997 128.598 1.744C129.718 2.736 130.278 4 130.278 5.536C130.278 7.04 129.718 8.288 128.598 9.28C127.478 10.272 126.006 10.768 124.182 10.768ZM129.462 12.928V40H118.806V12.928H129.462ZM160.483 26.224C160.483 26.96 160.435 27.664 160.339 28.336H143.203C143.363 30.672 144.339 31.84 146.131 31.84C147.283 31.84 148.115 31.312 148.627 30.256H159.907C159.523 32.176 158.707 33.904 157.459 35.44C156.243 36.944 154.691 38.144 152.803 39.04C150.947 39.904 148.899 40.336 146.659 40.336C143.971 40.336 141.571 39.776 139.459 38.656C137.379 37.536 135.747 35.936 134.563 33.856C133.411 31.744 132.835 29.28 132.835 26.464C132.835 23.648 133.411 21.2 134.563 19.12C135.747 17.008 137.379 15.392 139.459 14.272C141.571 13.152 143.971 12.592 146.659 12.592C149.347 12.592 151.731 13.152 153.811 14.272C155.923 15.36 157.555 16.928 158.707 18.976C159.891 21.024 160.483 23.44 160.483 26.224ZM149.683 23.68C149.683 22.784 149.395 22.112 148.819 21.664C148.243 21.184 147.523 20.944 146.659 20.944C144.771 20.944 143.667 21.856 143.347 23.68H149.683Z" fill="#333333"/>
</svg>
