<svg width="14" height="14" viewBox="0 0 14 14" fill="none" xmlns="http://www.w3.org/2000/svg">
<path d="M5.6875 7C5.6875 7.72362 6.27637 8.3125 7 8.3125C7.72362 8.3125 8.3125 7.72362 8.3125 7C8.3125 6.27637 7.72362 5.6875 7 5.6875C6.27637 5.6875 5.6875 6.27637 5.6875 7Z" fill="#333333"/>
<path d="M5.6875 11.375C5.6875 12.0986 6.27637 12.6875 7 12.6875C7.72362 12.6875 8.3125 12.0986 8.3125 11.375C8.3125 10.6514 7.72362 10.0625 7 10.0625C6.27637 10.0625 5.6875 10.6514 5.6875 11.375Z" fill="#333333"/>
<path d="M5.6875 2.625C5.6875 3.34862 6.27637 3.9375 7 3.9375C7.72362 3.9375 8.3125 3.34862 8.3125 2.625C8.3125 1.90137 7.72362 1.3125 7 1.3125C6.27637 1.3125 5.6875 1.90137 5.6875 2.625Z" fill="#333333"/>
</svg>
