<svg width="24" height="19" viewBox="0 0 24 19" fill="none" xmlns="http://www.w3.org/2000/svg">
<g clip-path="url(#clip0_29_470)">
<g clip-path="url(#clip1_29_470)">
<path d="M12 12.5C13.3808 12.5 14.5 11.3808 14.5 10C14.5 8.61933 13.3808 7.50004 12 7.50004C10.6193 7.50004 9.50004 8.61933 9.50004 10C9.50004 11.3808 10.6193 12.5 12 12.5Z" stroke="#1E1E1E" stroke-width="2" stroke-linecap="round" stroke-linejoin="round"/>
<path d="M18.1667 12.5C18.0558 12.7514 18.0227 13.0302 18.0717 13.3005C18.1207 13.5709 18.2496 13.8203 18.4417 14.0167L18.4917 14.0667C18.6467 14.2215 18.7696 14.4053 18.8535 14.6076C18.9373 14.81 18.9805 15.0268 18.9805 15.2459C18.9805 15.4649 18.9373 15.6818 18.8535 15.8841C18.7696 16.0864 18.6467 16.2702 18.4917 16.425C18.3369 16.58 18.1531 16.7029 17.9508 16.7868C17.7484 16.8707 17.5316 16.9139 17.3125 16.9139C17.0935 16.9139 16.8766 16.8707 16.6743 16.7868C16.472 16.7029 16.2882 16.58 16.1334 16.425L16.0834 16.375C15.887 16.1829 15.6375 16.0541 15.3672 16.005C15.0969 15.956 14.8181 15.9891 14.5667 16.1C14.3202 16.2057 14.11 16.3811 13.962 16.6047C13.8139 16.8282 13.7344 17.0902 13.7334 17.3584V17.5C13.7334 17.9421 13.5578 18.366 13.2452 18.6785C12.9327 18.9911 12.5087 19.1667 12.0667 19.1667C11.6247 19.1667 11.2008 18.9911 10.8882 18.6785C10.5756 18.366 10.4 17.9421 10.4 17.5V17.425C10.3936 17.1492 10.3043 16.8817 10.1438 16.6573C9.98329 16.4329 9.75899 16.2619 9.50004 16.1667C9.24869 16.0558 8.96988 16.0227 8.69955 16.0717C8.42922 16.1207 8.17977 16.2496 7.98337 16.4417L7.93337 16.4917C7.77858 16.6467 7.59477 16.7696 7.39244 16.8535C7.19011 16.9373 6.97323 16.9805 6.75421 16.9805C6.53518 16.9805 6.3183 16.9373 6.11597 16.8535C5.91364 16.7696 5.72983 16.6467 5.57504 16.4917C5.42008 16.3369 5.29715 16.1531 5.21327 15.9508C5.1294 15.7484 5.08623 15.5316 5.08623 15.3125C5.08623 15.0935 5.1294 14.8766 5.21327 14.6743C5.29715 14.472 5.42008 14.2882 5.57504 14.1334L5.62504 14.0834C5.81715 13.887 5.94603 13.6375 5.99504 13.3672C6.04406 13.0969 6.01097 12.8181 5.90004 12.5667C5.7944 12.3202 5.619 12.11 5.39543 11.962C5.17185 11.8139 4.90986 11.7344 4.64171 11.7334H4.50004C4.05801 11.7334 3.63409 11.5578 3.32153 11.2452C3.00897 10.9327 2.83337 10.5087 2.83337 10.0667C2.83337 9.62468 3.00897 9.20076 3.32153 8.8882C3.63409 8.57563 4.05801 8.40004 4.50004 8.40004H4.57504C4.85087 8.39359 5.11838 8.30431 5.34279 8.1438C5.5672 7.98329 5.73814 7.75899 5.83337 7.50004C5.9443 7.24869 5.97739 6.96988 5.92838 6.69955C5.87936 6.42922 5.75049 6.17977 5.55837 5.98337L5.50837 5.93337C5.35341 5.77858 5.23048 5.59477 5.14661 5.39244C5.06273 5.19011 5.01956 4.97323 5.01956 4.75421C5.01956 4.53518 5.06273 4.3183 5.14661 4.11597C5.23048 3.91364 5.35341 3.72983 5.50837 3.57504C5.66316 3.42008 5.84698 3.29715 6.04931 3.21327C6.25164 3.1294 6.46851 3.08623 6.68754 3.08623C6.90657 3.08623 7.12344 3.1294 7.32577 3.21327C7.5281 3.29715 7.71192 3.42008 7.86671 3.57504L7.91671 3.62504C8.11311 3.81715 8.36255 3.94603 8.63288 3.99504C8.90321 4.04406 9.18203 4.01097 9.43337 3.90004H9.50004C9.74651 3.7944 9.95672 3.619 10.1048 3.39543C10.2528 3.17185 10.3323 2.90986 10.3334 2.64171V2.50004C10.3334 2.05801 10.509 1.63409 10.8215 1.32153C11.1341 1.00897 11.558 0.833374 12 0.833374C12.4421 0.833374 12.866 1.00897 13.1786 1.32153C13.4911 1.63409 13.6667 2.05801 13.6667 2.50004V2.57504C13.6678 2.8432 13.7472 3.10519 13.8953 3.32876C14.0434 3.55234 14.2536 3.72774 14.5 3.83337C14.7514 3.9443 15.0302 3.97739 15.3005 3.92838C15.5709 3.87936 15.8203 3.75049 16.0167 3.55837L16.0667 3.50837C16.2215 3.35341 16.4053 3.23048 16.6076 3.14661C16.81 3.06273 17.0268 3.01956 17.2459 3.01956C17.4649 3.01956 17.6818 3.06273 17.8841 3.14661C18.0864 3.23048 18.2702 3.35341 18.425 3.50837C18.58 3.66316 18.7029 3.84698 18.7868 4.04931C18.8707 4.25164 18.9139 4.46851 18.9139 4.68754C18.9139 4.90657 18.8707 5.12344 18.7868 5.32577C18.7029 5.5281 18.58 5.71192 18.425 5.86671L18.375 5.91671C18.1829 6.11311 18.0541 6.36255 18.005 6.63288C17.956 6.90321 17.9891 7.18203 18.1 7.43337V7.50004C18.2057 7.74651 18.3811 7.95672 18.6047 8.10478C18.8282 8.25285 19.0902 8.3323 19.3584 8.33337H19.5C19.9421 8.33337 20.366 8.50897 20.6785 8.82153C20.9911 9.13409 21.1667 9.55801 21.1667 10C21.1667 10.4421 20.9911 10.866 20.6785 11.1786C20.366 11.4911 19.9421 11.6667 19.5 11.6667H19.425C19.1569 11.6678 18.8949 11.7472 18.6713 11.8953C18.4477 12.0434 18.2723 12.2536 18.1667 12.5Z" stroke="#1E1E1E" stroke-width="2" stroke-linecap="round" stroke-linejoin="round"/>
</g>
</g>
<defs>
<clipPath id="clip0_29_470">
<rect width="24" height="19" rx="9.5" fill="white"/>
</clipPath>
<clipPath id="clip1_29_470">
<rect width="20" height="20" fill="white" transform="translate(2)"/>
</clipPath>
</defs>
</svg>
