<svg width="14" height="14" viewBox="0 0 14 14" fill="none" xmlns="http://www.w3.org/2000/svg">
<path d="M10.1238 11.6372C10.0571 11.6375 9.99139 11.6213 9.9324 11.5902L7.0274 10.0625L4.12186 11.5902C4.05414 11.6256 3.97788 11.6414 3.90166 11.6358C3.82544 11.6302 3.75231 11.6034 3.6905 11.5585C3.6287 11.5136 3.58068 11.4522 3.55186 11.3815C3.52304 11.3107 3.51457 11.2332 3.5274 11.1579L4.08248 7.9226L1.73092 5.6312C1.67608 5.57779 1.63728 5.51009 1.61892 5.43578C1.60055 5.36147 1.60334 5.28349 1.62699 5.21069C1.65063 5.13788 1.69418 5.07314 1.7527 5.0238C1.81123 4.97445 1.88239 4.94247 1.95815 4.93147L5.20686 4.45951L6.65963 1.51569C6.69351 1.44707 6.7459 1.3893 6.81089 1.34891C6.87589 1.30852 6.95088 1.28711 7.0274 1.28711C7.10393 1.28711 7.17892 1.30852 7.24391 1.34891C7.30891 1.3893 7.3613 1.44707 7.39518 1.51569L8.84795 4.45951L12.0964 4.93147C12.1722 4.94243 12.2434 4.97438 12.3019 5.02371C12.3605 5.07303 12.4041 5.13777 12.4277 5.21058C12.4514 5.2834 12.4542 5.36139 12.4359 5.43572C12.4175 5.51005 12.3787 5.57777 12.3239 5.6312L9.97233 7.9226L10.5274 11.1579C10.5375 11.2168 10.5346 11.2771 10.5189 11.3347C10.5032 11.3923 10.4752 11.4458 10.4367 11.4915C10.3982 11.5371 10.3502 11.5738 10.2961 11.599C10.242 11.6242 10.183 11.6372 10.1233 11.6372H10.1238ZM2.8985 5.62381L4.80846 7.48565C4.85595 7.53195 4.89151 7.58907 4.91208 7.65212C4.93266 7.71518 4.93763 7.78228 4.92658 7.84768L4.47569 10.4765L6.836 9.23619C6.895 9.20506 6.9607 9.18879 7.0274 9.18879C7.09411 9.18879 7.15981 9.20506 7.21881 9.23619L9.57967 10.4773L9.12822 7.84768C9.117 7.78218 9.12186 7.71492 9.14239 7.65172C9.16292 7.58851 9.19851 7.53124 9.24608 7.48483L11.1563 5.62381L8.51682 5.241C8.45104 5.23144 8.38858 5.20603 8.3348 5.16697C8.28103 5.12791 8.23755 5.07637 8.20811 5.01678L7.0274 2.62502L5.84697 5.01678C5.81751 5.07641 5.77399 5.12797 5.72016 5.16703C5.66633 5.20609 5.60381 5.23148 5.53799 5.241L2.8985 5.62381Z" fill="#333333"/>
</svg>
