<svg width="20" height="20" viewBox="0 0 20 20" fill="none" xmlns="http://www.w3.org/2000/svg">
<g clip-path="url(#clip0_230_25)">
<path fill-rule="evenodd" clip-rule="evenodd" d="M10.6059 0.394605L13.1727 5.84417C13.267 6.05002 13.4578 6.19527 13.6814 6.23141L19.4209 7.10529C19.6803 7.15561 19.8911 7.34454 19.9694 7.59699C20.0477 7.84943 19.9808 8.12447 19.7953 8.31276L15.6421 12.5546C15.4818 12.7209 15.4097 12.9534 15.4478 13.1812L16.4283 19.1709C16.4818 19.4284 16.3826 19.6937 16.1734 19.853C15.9641 20.0123 15.682 20.0372 15.448 19.9171L10.3144 17.0892C10.1189 16.9808 9.88125 16.9808 9.68568 17.0892L4.5521 19.9171C4.31814 20.0372 4.036 20.0123 3.82676 19.853C3.61751 19.6937 3.51836 19.4284 3.57185 19.1709L4.55227 13.1812C4.59042 12.9534 4.51834 12.7209 4.35797 12.5546L0.204819 8.31276C0.019347 8.12447 -0.0475457 7.84944 0.0307341 7.597C0.109014 7.34456 0.31978 7.15563 0.579243 7.10531L6.31876 6.23142C6.5423 6.19527 6.73309 6.05003 6.82744 5.84417L9.39423 0.394605C9.50025 0.154733 9.73781 0 10.0001 0C10.2623 0 10.4999 0.154733 10.6059 0.394605Z" fill="#F6AB27"/>
<path fill-rule="evenodd" clip-rule="evenodd" d="M12.5484 4.52071C10.8929 5.4059 9.36418 6.51008 8.00354 7.80347C6.55336 9.19176 5.32315 10.7929 4.35526 12.5517L0.203568 8.31382C0.0181041 8.12542 -0.0486086 7.85023 0.0299897 7.59781C0.108588 7.34539 0.319738 7.15673 0.579375 7.10692L6.31735 6.23106C6.54059 6.19398 6.73136 6.04961 6.8277 5.84485L9.39319 0.393127C9.50036 0.153957 9.73801 3.05176e-05 10.0001 3.05176e-05C10.2622 3.05176e-05 10.4998 0.153957 10.607 0.393127L12.5484 4.52071Z" fill="#F4CD1E"/>
</g>
<defs>
<clipPath id="clip0_230_25">
<rect width="20" height="20" fill="white"/>
</clipPath>
</defs>
</svg>
