<svg width="20" height="20" viewBox="0 0 20 20" fill="none" xmlns="http://www.w3.org/2000/svg">
<g clip-path="url(#clip0_230_30)">
<path d="M19.2857 3.125H15.608L14.0902 0.908203C13.6652 0.344805 13.0089 0 12.2589 0H7.74107C6.99107 0 6.29464 0.344805 5.91071 0.908203L4.39196 3.125H0.714286C0.31808 3.125 0 3.40352 0 3.75V4.375C0 4.72266 0.31808 5 0.714286 5H1.42857V17.5C1.42857 18.8809 2.70759 20 4.28571 20H15.7143C17.2924 20 18.5714 18.8809 18.5714 17.5V5H19.2857C19.683 5 20 4.72266 20 4.375V3.75C20 3.40352 19.683 3.125 19.2857 3.125ZM7.67411 1.9875C7.71875 1.91914 7.80804 1.875 7.90179 1.875H12.0982C12.1931 1.875 12.2824 1.91895 12.327 1.9873L13.1071 3.125H6.89286L7.67411 1.9875ZM15.7143 18.125H4.28571C3.89121 18.125 3.57143 17.8452 3.57143 17.5V5H16.4286V17.5C16.4286 17.8438 16.1071 18.125 15.7143 18.125ZM10 16.25C10.3948 16.25 10.7143 15.9705 10.7143 15.625V7.5C10.7143 7.15453 10.3948 6.875 10 6.875C9.60518 6.875 9.28571 7.15625 9.28571 7.5V15.625C9.28571 15.9688 9.60714 16.25 10 16.25ZM6.42857 16.25C6.82143 16.25 7.14286 15.9688 7.14286 15.625V7.5C7.14286 7.15453 6.82339 6.875 6.42857 6.875C6.03375 6.875 5.71429 7.15625 5.71429 7.5V15.625C5.71429 15.9688 6.03571 16.25 6.42857 16.25ZM13.5714 16.25C13.9663 16.25 14.2857 15.9705 14.2857 15.625V7.5C14.2857 7.15453 13.9663 6.875 13.5714 6.875C13.1766 6.875 12.8571 7.15625 12.8571 7.5V15.625C12.8571 15.9688 13.1786 16.25 13.5714 16.25Z" fill="black"/>
</g>
<defs>
<clipPath id="clip0_230_30">
<rect width="20" height="20" fill="white"/>
</clipPath>
</defs>
</svg>
